<svg data-v-0dd9719b="" version="1.0" xmlns="http://www.w3.org/2000/svg" xmlns:xlink="http://www.w3.org/1999/xlink" width="100%" height="100%" viewBox="0 0 340.000000 250.000000" preserveAspectRatio="xMidYMid meet" color-interpolation-filters="sRGB" style="margin: auto;"> <rect data-v-0dd9719b="" x="0" y="0" width="100%" height="100%" fill="#fff" fill-opacity="1" class="background"></rect> <rect data-v-0dd9719b="" x="0" y="0" width="100%" height="100%" fill="url(#watermark)" fill-opacity="1" class="watermarklayer"></rect> <g data-v-0dd9719b="" fill="#f29716" class="icon-text-wrapper icon-svg-group iconsvg" transform="translate(71.47000122070312,90.30107116699219)"><g class="iconsvg-imagesvg" transform="translate(0,0)"><g><rect fill="#f29716" fill-opacity="0" stroke-width="2" x="0" y="0" width="59.99999999999999" height="69.3978579194522" class="image-rect"></rect> <svg x="0" y="0" width="59.99999999999999" height="69.3978579194522" filtersec="colorsb5487059266" class="image-svg-svg primary" style="overflow: visible;"><svg version="1.1" id="图层_1" xmlns="http://www.w3.org/2000/svg" xmlns:xlink="http://www.w3.org/1999/xlink" x="0px" y="0px" viewBox="3.5199999809265137 0 102.9800033569336 119.11000061035156" enable-background="new 0 0 109 120" xml:space="preserve">
<polygon fill="#F29716" points="3.52,31.23 3.52,89.38 55.01,119.11 "></polygon>
<polygon fill="#FBDF5E" points="55.01,87.88 55.01,29.73 3.52,0 "></polygon>
<polygon fill="#00579D" points="55.01,87.01 55.01,30.64 106.5,1.83 "></polygon>
<polygon fill="#66BC8B" points="106.5,32.1 106.5,88.46 55.01,117.28 "></polygon>
</svg></svg> <!----></g></g> <g transform="translate(67,6.352245330810547)"><g data-gra="path-name" fill-rule="" class="tp-name iconsvg-namesvg"><g transform="scale(1)"><g><path d="M0.68 7.29L0.68 7.29Q-1.03 7.29-2.57 6.95L-2.57 6.95-2.57 2.08Q-2.06 2.17-1.49 2.29-0.92 2.41-0.25 2.41L-0.25 2.41Q1.3 2.41 1.97 1.48 2.63 0.54 2.63-1.73L2.63-1.73 2.63-23.21 8.94-23.21 8.94-2.27Q8.94 2.44 6.87 4.87 4.81 7.29 0.68 7.29ZM20.25 0L13.95 0 13.95-23.21 20.25-23.21 20.25 0ZM46.37 0L39.51 0 38.37-4.35 30.83-4.35 29.65 0 22.76 0 30.33-23.3 38.7-23.3 46.37 0ZM32.13-9.49L37.06-9.49 36.06-13.3Q35.71-14.57 35.21-16.59 34.71-18.6 34.56-19.48L34.56-19.48Q34.41-18.67 33.99-16.81 33.57-14.95 32.13-9.49L32.13-9.49ZM70.97-23.21L70.97 0 62.75 0 54.27-16.35 54.13-16.35Q54.43-12.49 54.43-10.46L54.43-10.46 54.43 0 48.87 0 48.87-23.21 57.06-23.21 65.51-7.08 65.6-7.08Q65.38-10.59 65.38-12.71L65.38-12.71 65.38-23.21 70.97-23.21ZM99.63 0L84.43 0 84.43-23.21 90.7-23.21 90.7-5.06 99.63-5.06 99.63 0ZM117.13-5.11L117.13 0 103.35 0 103.35-23.21 117.13-23.21 117.13-18.17 109.62-18.17 109.62-14.52 116.57-14.52 116.57-9.49 109.62-9.49 109.62-5.11 117.13-5.11ZM127.49 0L121.19 0 121.19-23.21 127.49-23.21 127.49 0Z" transform="translate(2.569999933242798, 23.299999237060547)"></path></g> <!----> <!----> <!----> <!----> <!----> <!----> <g data-gra="path-name-1" fill="#f29716" transform="translate(0,33.59000015258789)"><g transform="scale(1.0314)"><path d="M11.1-8.21L11.1-12.76 20.5-12.76 20.5-1.01Q16.67 0.3 12.09 0.3L12.09 0.3Q7.05 0.3 4.3-2.62 1.55-5.54 1.55-10.95L1.55-10.95Q1.55-16.23 4.56-19.16 7.57-22.1 12.99-22.1L12.99-22.1Q15.05-22.1 16.88-21.71 18.7-21.32 20.06-20.73L20.06-20.73 18.19-16.11Q15.84-17.27 13.02-17.27L13.02-17.27Q10.45-17.27 9.04-15.59 7.63-13.92 7.63-10.8L7.63-10.8Q7.63-7.75 8.9-6.15 10.18-4.54 12.58-4.54L12.58-4.54Q13.89-4.54 14.99-4.8L14.99-4.8 14.99-8.21 11.1-8.21ZM44.75 0L38.31 0 37.24-4.08 30.16-4.08 29.06 0 22.59 0 29.7-21.88 37.55-21.88 44.75 0ZM31.38-8.91L36.02-8.91 35.08-12.49Q34.75-13.68 34.28-15.57 33.81-17.46 33.66-18.28L33.66-18.28Q33.53-17.52 33.13-15.78 32.74-14.04 31.38-8.91L31.38-8.91ZM54.48-7.93L52.99-7.93 52.99 0 47.1 0 47.1-21.79 54.24-21.79Q63.12-21.79 63.12-15.35L63.12-15.35Q63.12-11.56 59.43-9.49L59.43-9.49 65.77 0 59.1 0 54.48-7.93ZM52.99-17.33L52.99-12.35 54.09-12.35Q57.18-12.35 57.18-15.08L57.18-15.08Q57.18-17.33 54.15-17.33L54.15-17.33 52.99-17.33ZM86.25-11.35L86.25-11.35Q86.25-5.9 83.25-2.95 80.24 0 74.81 0L74.81 0 67.76 0 67.76-21.79 75.3-21.79Q80.54-21.79 83.4-19.1 86.25-16.42 86.25-11.35ZM80.14-11.15L80.14-11.15Q80.14-14.14 78.96-15.59 77.77-17.03 75.36-17.03L75.36-17.03 73.64-17.03 73.64-4.83 74.95-4.83Q77.64-4.83 78.89-6.39 80.14-7.94 80.14-11.15ZM103.09-4.8L103.09 0 90.15 0 90.15-21.79 103.09-21.79 103.09-17.06 96.04-17.06 96.04-13.63 102.57-13.63 102.57-8.91 96.04-8.91 96.04-4.8 103.09-4.8ZM127.65-21.79L127.65 0 119.93 0 111.97-15.35 111.84-15.35Q112.12-11.73 112.12-9.82L112.12-9.82 112.12 0 106.9 0 106.9-21.79 114.59-21.79 122.52-6.65 122.61-6.65Q122.4-9.94 122.4-11.94L122.4-11.94 122.4-21.79 127.65-21.79Z" transform="translate(-1.5499999523162842, 22.100000381469727)"></path></g></g></g></g> <!----></g></g><defs v-gra="od"></defs></svg>